ply
format ascii 1.0
comment VTK generated PLY File
obj_info vtkPolyData points and polygons: vtk4.0
element vertex 104
property float x
property float y
property float z
element face 26
property list uchar int vertex_indices
end_header
0 40 60 
0 60 60 
0 60 50 
0 40 50 
0 40 10 
0 60 10 
0 60 0 
0 40 0 
0 20 60 
0 40 60 
0 40 50 
0 20 50 
0 20 10 
0 40 10 
0 40 0 
0 20 0 
0 0 60 
0 20 60 
0 20 50 
0 0 50 
0 0 10 
0 20 10 
0 20 0 
0 0 0 
0 20 50 
0 40 50 
0 40 10 
0 20 10 
120 40 60 
120 60 60 
120 60 50 
120 40 50 
120 40 10 
120 60 10 
120 60 0 
120 40 0 
120 20 60 
120 40 60 
120 40 50 
120 20 50 
120 20 10 
120 40 10 
120 40 0 
120 20 0 
120 0 60 
120 20 60 
120 20 50 
120 0 50 
120 0 10 
120 20 10 
120 20 0 
120 0 0 
120 20 50 
120 40 50 
120 40 10 
120 20 10 
0 60 60 
120 60 60 
120 60 50 
0 60 50 
0 60 10 
120 60 10 
120 60 0 
0 60 0 
0 0 60 
120 0 60 
120 0 50 
0 0 50 
0 0 10 
120 0 10 
120 0 0 
0 0 0 
0 40 50 
120 40 50 
120 40 10 
0 40 10 
0 20 50 
120 20 50 
120 20 10 
0 20 10 
0 60 50 
120 60 50 
120 40 50 
0 40 50 
0 20 50 
120 20 50 
120 0 50 
0 0 50 
0 60 10 
120 60 10 
120 40 10 
0 40 10 
0 20 10 
120 20 10 
120 0 10 
0 0 10 
0 60 60 
120 60 60 
120 0 60 
0 0 60 
0 60 0 
120 60 0 
120 0 0 
0 0 0 
4 0 1 2 3 
4 4 5 6 7 
4 8 0 3 11 
4 12 4 7 15 
4 16 8 11 19 
4 20 12 15 23 
4 11 3 4 12 
4 28 29 30 31 
4 32 33 34 35 
4 36 28 31 39 
4 40 32 35 43 
4 44 36 39 47 
4 48 40 43 51 
4 39 31 32 40 
4 1 29 30 2 
4 5 33 34 6 
4 16 44 47 19 
4 20 48 51 23 
4 3 31 32 4 
4 11 39 40 12 
4 2 30 31 3 
4 11 39 47 19 
4 5 33 32 4 
4 12 40 48 20 
4 1 29 44 16 
4 6 34 51 23 
